<?xml version="1.0" standalone="no"?>
<!DOCTYPE svg PUBLIC "-//W3C//DTD SVG 20010904//EN"
 "http://www.w3.org/TR/2001/REC-SVG-20010904/DTD/svg10.dtd">
<svg version="1.0" xmlns="http://www.w3.org/2000/svg"
 width="640.000000pt" height="640.000000pt" viewBox="0 0 640.000000 640.000000"
 preserveAspectRatio="xMidYMid meet">

<g transform="translate(0.000000,640.000000) scale(0.100000,-0.100000)"
fill="#000000" stroke="none">
<path d="M3615 5942 c-43 -20 -89 -67 -100 -102 -4 -12 -15 -20 -28 -20 -41 0
-123 -47 -163 -93 -66 -75 -90 -190 -59 -282 5 -15 5 -17 -3 -6 -9 13 -14 11
-31 -10 -32 -38 -44 -76 -37 -114 9 -49 53 -75 125 -75 57 0 138 19 122 29 -5
4 24 5 65 3 68 -4 81 -1 139 27 97 48 155 135 155 234 0 31 7 48 34 78 33 36
56 91 56 135 0 11 -7 41 -15 66 -39 112 -165 175 -260 130z m219 -87 c9 -14
16 -34 16 -46 0 -17 -9 -10 -40 34 -22 30 -40 58 -40 61 0 12 49 -26 64 -49z
m-495 -430 l23 -40 -26 28 c-14 15 -26 35 -26 44 0 19 0 19 29 -32z"/>
<path d="M3147 4813 c-44 -4 -48 -6 -45 -28 2 -13 -1 -25 -7 -27 -5 -2 -11 7
-13 20 -4 24 -18 27 -84 16 -21 -4 -36 -10 -33 -13 2 -4 -9 -5 -25 -3 -21 3
-31 -1 -40 -18 -9 -17 -14 -19 -25 -10 -8 7 -19 9 -25 5 -6 -4 -26 -9 -43 -12
-44 -7 -184 -59 -216 -80 -14 -9 -30 -18 -36 -19 -5 0 -16 -2 -22 -2 -7 -1
-13 -8 -13 -15 0 -7 -21 -18 -46 -25 -38 -10 -44 -15 -39 -32 4 -11 2 -20 -4
-20 -6 0 -11 5 -11 10 0 11 -42 -10 -107 -54 -26 -17 -43 -36 -43 -48 0 -15
-5 -18 -19 -13 -14 4 -26 -3 -45 -28 -21 -27 -24 -40 -19 -73 4 -31 3 -37 -7
-28 -6 7 -13 24 -13 38 -2 27 -2 27 -19 6 -9 -11 -21 -20 -26 -20 -14 0 -113
-109 -180 -198 -105 -141 -185 -285 -229 -411 -11 -33 -12 -46 -3 -51 8 -5 5
-9 -7 -12 -15 -4 -26 -29 -46 -105 -50 -185 -59 -307 -48 -619 1 -31 19 -39
48 -21 6 4 16 0 23 -9 11 -12 15 -12 22 -2 6 9 7 5 3 -9 -5 -17 -2 -23 10 -23
14 0 15 8 9 58 -4 31 -12 83 -19 115 -6 32 -8 57 -3 57 5 0 8 25 7 55 -1 30 0
58 4 62 4 3 7 21 7 38 0 18 7 72 16 121 9 49 16 97 16 106 0 10 3 20 9 23 5 4
9 21 9 40 0 18 5 35 10 37 6 2 11 18 13 36 1 17 6 32 11 32 5 0 6 3 3 6 -4 4
-18 -1 -31 -10 -33 -21 -33 -21 -32 11 1 22 7 28 34 34 26 5 32 4 28 -7 -3 -8
-1 -14 4 -14 6 0 10 5 10 10 0 6 9 30 20 52 23 47 24 51 11 43 -5 -3 -12 -1
-15 4 -3 5 3 11 13 14 11 2 29 24 42 48 12 24 37 68 56 98 33 52 34 54 16 75
-17 20 -17 21 1 4 18 -16 20 -16 36 5 25 33 31 56 20 78 -9 16 -6 19 27 25 28
4 47 16 71 45 30 35 31 39 13 39 -35 0 -23 17 17 24 22 4 52 20 75 41 39 37
40 44 21 128 -6 26 -5 27 20 17 20 -7 26 -6 26 5 0 26 17 25 29 -3 10 -24 10
-25 -3 -9 -12 16 -14 16 -20 1 -8 -22 -9 -21 15 -27 12 -3 18 -10 14 -17 -3
-5 20 8 52 30 32 23 61 49 65 58 4 9 7 11 7 4 1 -8 14 -4 39 11 101 64 318
157 363 157 13 0 18 4 13 12 -4 6 -3 8 3 5 6 -4 59 4 119 16 102 21 109 23
106 45 -2 12 1 22 7 22 10 0 15 -13 12 -35 0 -7 13 -9 34 -7 19 2 35 8 35 13
0 5 9 9 20 9 11 0 20 -4 20 -9 0 -13 63 -9 72 4 5 7 8 7 8 0 0 -6 28 -11 63
-12 205 -7 488 -79 645 -165 40 -22 42 -22 42 0 1 10 7 3 15 -15 8 -18 18 -33
24 -33 5 0 46 -25 89 -55 l80 -54 8 27 c4 15 8 29 9 32 0 3 6 15 13 27 11 20
9 25 -24 49 -29 23 -37 25 -45 13 -8 -12 -10 -12 -18 1 -5 8 -8 17 -5 21 3 6
-126 89 -139 89 -3 0 -3 -18 0 -40 3 -22 1 -40 -4 -40 -5 0 -9 10 -10 23 -1
74 -2 75 -196 143 -123 42 -130 43 -117 7 10 -27 9 -27 -5 -8 -9 11 -21 28
-28 37 -7 10 -30 19 -52 22 -22 2 -51 7 -65 10 -14 3 -41 8 -60 11 -46 7 -311
13 -373 8z m428 -43 c-3 -5 -11 -10 -16 -10 -6 0 -7 5 -4 10 3 6 11 10 16 10
6 0 7 -4 4 -10z m-275 -4 c0 -3 -4 -8 -10 -11 -5 -3 -10 -1 -10 4 0 6 5 11 10
11 6 0 10 -2 10 -4z m-475 -46 c-3 -5 -11 -10 -16 -10 -6 0 -7 5 -4 10 3 6 11
10 16 10 6 0 7 -4 4 -10z m1132 -92 c-3 -7 -5 -2 -5 12 0 14 2 19 5 13 2 -7 2
-19 0 -25z m-1307 -37 c0 -6 -4 -13 -10 -16 -5 -3 -10 1 -10 9 0 9 5 16 10 16
6 0 10 -4 10 -9z m-120 -11 c0 -5 -2 -10 -4 -10 -3 0 -8 5 -11 10 -3 6 -1 10
4 10 6 0 11 -4 11 -10z m-90 -60 c0 -11 -2 -20 -5 -20 -2 0 -9 9 -15 20 -9 16
-8 20 5 20 8 0 15 -9 15 -20z m-240 -234 c0 -3 -4 -8 -10 -11 -5 -3 -10 -1
-10 4 0 6 5 11 10 11 6 0 10 -2 10 -4z m-138 -74 c-17 -5 -15 -22 3 -22 8 0
15 -4 15 -10 0 -5 -9 -10 -20 -10 -13 0 -20 7 -20 19 0 11 -3 21 -7 24 -5 2
-2 2 5 1 6 -2 12 1 12 7 0 6 5 7 12 3 9 -6 9 -9 0 -12z m-32 -36 c0 -3 -4 -8
-10 -11 -5 -3 -10 -1 -10 4 0 6 5 11 10 11 6 0 10 -2 10 -4z m-105 -156 c-3
-5 -11 -10 -16 -10 -6 0 -7 5 -4 10 3 6 11 10 16 10 6 0 7 -4 4 -10z m-55 -30
c0 -5 -5 -10 -11 -10 -5 0 -7 5 -4 10 3 6 8 10 11 10 2 0 4 -4 4 -10z m-80
-210 c0 -5 -2 -10 -4 -10 -3 0 -8 5 -11 10 -3 6 -1 10 4 10 6 0 11 -4 11 -10z
m-35 -40 c-3 -5 -11 -10 -16 -10 -6 0 -7 5 -4 10 3 6 11 10 16 10 6 0 7 -4 4
-10z m42 4 c-3 -3 -12 -4 -19 -1 -8 3 -5 6 6 6 11 1 17 -2 13 -5z m-103 -150
c3 -8 2 -12 -4 -9 -6 3 -10 10 -10 16 0 14 7 11 14 -7z m-34 -323 c0 -9 7 -26
15 -37 17 -22 19 -34 5 -34 -13 0 -48 72 -43 88 6 17 23 5 23 -17z m40 -141
c0 -5 -5 -10 -11 -10 -5 0 -7 5 -4 10 3 6 8 10 11 10 2 0 4 -4 4 -10z m10
-150 c0 -5 -2 -10 -4 -10 -3 0 -8 5 -11 10 -3 6 -1 10 4 10 6 0 11 -4 11 -10z"/>
<path d="M4363 4426 c4 -10 7 -31 7 -47 0 -20 5 -29 17 -29 12 0 10 -6 -11
-23 l-26 -23 55 -52 c50 -47 57 -51 78 -41 12 7 25 17 29 23 5 8 8 7 8 -1 0
-7 3 -12 8 -11 11 2 62 -24 62 -33 0 -4 -10 -5 -22 -1 -14 3 -19 2 -14 -6 4
-7 3 -12 -3 -12 -5 0 -9 -18 -9 -40 0 -22 4 -40 8 -40 4 0 23 -26 44 -57 20
-32 36 -52 36 -45 0 6 4 12 9 12 5 0 7 -8 4 -19 -3 -14 3 -21 24 -29 17 -6 21
-11 11 -11 -22 -1 -22 -2 -1 -46 13 -28 21 -34 37 -29 18 6 19 5 7 -10 -12
-14 -9 -25 18 -82 17 -37 46 -107 63 -158 17 -50 33 -93 37 -96 3 -3 6 -18 5
-35 0 -16 5 -55 12 -85 8 -30 13 -72 14 -92 0 -29 4 -38 18 -39 10 0 12 -3 5
-6 -9 -3 -13 -25 -12 -61 0 -44 2 -52 9 -35 5 12 7 31 5 42 -2 12 1 20 8 18 6
-1 11 3 12 10 0 6 3 14 7 18 4 4 5 12 2 18 -2 7 9 21 26 32 23 16 26 21 15 28
-19 10 -38 -1 -28 -16 4 -7 -1 -6 -11 2 -20 16 -11 29 24 34 22 4 43 27 23 27
-4 0 -9 19 -10 43 -2 44 -7 66 -44 187 -13 41 -23 77 -24 80 -6 32 -82 199
-94 210 -3 3 -7 10 -8 16 -5 28 -116 198 -175 268 -4 6 -17 22 -28 35 -11 13
-20 19 -20 13 0 -7 -5 -12 -11 -12 -6 0 -9 7 -5 15 6 17 -42 78 -56 69 -5 -3
-7 -16 -4 -28 4 -16 1 -22 -12 -22 -9 -1 -25 -4 -34 -8 -12 -6 -17 -3 -16 11
0 10 -3 35 -7 56 -6 31 -5 37 10 37 13 0 16 -7 13 -29 -4 -29 -4 -29 18 -13
l23 17 -37 38 c-20 21 -50 48 -66 60 -26 18 -29 19 -23 3z m103 -213 c-10 -10
-19 5 -10 18 6 11 8 11 12 0 2 -7 1 -15 -2 -18z m132 -55 c-1 -7 5 -27 14 -43
22 -41 34 -105 19 -105 -6 0 -11 9 -11 21 0 11 -4 18 -8 15 -5 -3 -6 8 -4 25
3 23 -2 35 -23 53 -15 13 -24 29 -21 35 10 15 37 14 34 -1z m49 -70 c-3 -8 -6
-5 -6 6 -1 11 2 17 5 13 3 -3 4 -12 1 -19z m143 -262 c0 -6 -7 2 -15 18 -8 15
-15 33 -15 40 0 6 7 -2 15 -18 8 -15 15 -33 15 -40z m126 -238 c4 -7 4 -10 -1
-6 -4 4 -15 2 -24 -5 -14 -11 -14 -10 -2 6 16 20 18 21 27 5z m-51 -28 c-3 -5
-11 -10 -16 -10 -6 0 -7 5 -4 10 3 6 11 10 16 10 6 0 7 -4 4 -10z"/>
<path d="M4298 4388 c-20 -20 -24 -33 -8 -23 6 3 10 1 10 -4 0 -6 5 -11 12
-11 6 0 8 3 5 6 -3 4 -2 15 3 25 14 25 -1 30 -22 7z"/>
<path d="M4130 4304 c-36 -8 -75 -17 -87 -19 -35 -8 -18 -45 21 -46 45 -1 71
-11 100 -36 15 -13 31 -23 37 -23 5 0 8 -4 4 -9 -8 -13 8 -21 24 -12 10 7 11
23 1 85 -7 43 -18 76 -24 75 -6 0 -40 -7 -76 -15z"/>
<path d="M3835 4244 c-60 -13 -111 -24 -112 -24 -2 0 -3 -7 -3 -15 0 -8 11
-17 25 -21 17 -4 27 -15 31 -33 3 -14 8 -33 11 -41 2 -8 7 -32 9 -53 3 -21 10
-50 16 -65 6 -15 10 -31 9 -36 -1 -6 5 -40 14 -77 l17 -67 36 5 c20 3 34 2 30
-2 -5 -6 -28 -12 -51 -14 -5 -1 -5 -5 -2 -11 3 -5 23 -10 43 -11 33 0 35 -1
14 -10 -13 -5 -28 -7 -33 -3 -5 3 -9 -5 -9 -17 0 -18 5 -21 30 -17 22 3 30 1
30 -11 1 -13 3 -12 15 3 8 11 15 14 15 8 0 -7 7 -12 15 -12 8 0 15 8 15 18 0
11 3 13 8 5 5 -7 13 -9 21 -3 8 4 20 6 28 3 9 -4 13 5 12 33 0 42 -17 96 -18
61 -1 -10 -5 -16 -10 -13 -5 3 -15 -2 -22 -11 -13 -14 -11 -16 14 -11 15 3 27
1 27 -3 0 -5 -7 -9 -15 -9 -8 0 -15 -4 -15 -9 0 -5 -7 -12 -16 -15 -12 -5 -15
-2 -10 10 4 11 2 15 -7 11 -8 -3 -18 7 -26 25 -12 26 -18 29 -42 24 -16 -3
-29 -1 -29 4 0 5 12 10 28 12 21 2 26 8 24 24 -2 13 3 21 13 21 10 0 14 -6 10
-14 -3 -8 1 -21 9 -28 12 -12 15 -10 21 13 6 25 7 26 20 8 22 -29 34 -11 23
34 -6 22 -14 37 -19 34 -5 -3 -9 0 -9 5 0 6 4 11 9 11 6 0 6 13 0 33 -6 17
-12 43 -14 57 -4 25 -19 114 -31 183 -8 44 -2 43 -149 11z m130 -74 c3 -5 1
-10 -4 -10 -6 0 -11 5 -11 10 0 6 2 10 4 10 3 0 8 -4 11 -10z m25 -60 c0 -5
-5 -10 -11 -10 -5 0 -7 5 -4 10 3 6 8 10 11 10 2 0 4 -4 4 -10z m-40 -64 c0
-2 -7 -7 -16 -10 -8 -3 -12 -2 -9 4 6 10 25 14 25 6z m-40 -20 c0 -2 -7 -7
-16 -10 -8 -3 -12 -2 -9 4 6 10 25 14 25 6z m-83 -28 c-3 -8 -6 -5 -6 6 -1 11
2 17 5 13 3 -3 4 -12 1 -19z m33 12 c0 -5 -4 -10 -10 -10 -5 0 -10 5 -10 10 0
6 5 10 10 10 6 0 10 -4 10 -10z m150 -20 c0 -5 -5 -10 -11 -10 -5 0 -7 5 -4
10 3 6 8 10 11 10 2 0 4 -4 4 -10z m-24 -25 c3 -14 10 -22 15 -19 5 3 6 -1 4
-8 -9 -23 -42 -19 -47 6 -9 46 17 65 28 21z m-48 -40 c-3 -3 -9 2 -12 12 -6
14 -5 15 5 6 7 -7 10 -15 7 -18z"/>
<path d="M4486 4195 c-16 -12 -17 -15 -4 -15 8 0 21 7 28 15 16 19 1 19 -24 0z"/>
<path d="M3555 4189 c-22 -6 -50 -12 -63 -15 -15 -3 -22 -11 -20 -22 3 -17 7
-18 48 -21 11 0 20 -8 20 -16 0 -8 9 -15 20 -15 23 0 72 50 65 67 -2 8 3 12
13 10 9 -1 19 3 22 8 7 14 -56 16 -105 4z"/>
<path d="M3308 4143 c-16 -2 -28 -8 -28 -12 0 -5 -17 -9 -37 -10 -21 0 -63 -7
-93 -14 -59 -13 -75 -35 -39 -52 19 -9 210 -298 238 -360 13 -30 38 -49 46
-35 3 5 3 15 0 20 -3 6 -3 20 1 32 7 24 17 13 28 -35 5 -21 4 -27 -5 -21 -8 5
-9 3 -4 -6 4 -7 2 -16 -6 -21 -23 -14 -4 -20 29 -8 32 11 44 29 20 29 -9 0 -8
4 2 11 11 8 12 12 2 16 -6 2 -10 9 -6 14 3 5 14 -1 25 -13 12 -13 18 -18 15
-12 -3 6 2 20 10 30 15 18 15 18 11 -3 -3 -13 -1 -26 4 -29 5 -3 9 5 9 17 0
13 5 37 12 55 11 32 8 38 -75 176 -104 173 -104 174 -82 198 31 34 5 45 -77
33z m-77 -101 c-7 -2 -18 1 -23 6 -8 8 -4 9 13 5 13 -4 18 -8 10 -11z m87 -24
c6 -18 13 -42 17 -53 5 -14 -1 -11 -19 10 -25 29 -35 75 -16 75 5 0 13 -15 18
-32z m52 -167 c0 -5 3 -17 7 -27 4 -11 2 -15 -7 -12 -20 6 -33 48 -15 48 8 0
15 -4 15 -9z m19 -69 c5 -10 6 -24 1 -31 -6 -11 -11 -9 -19 8 -7 12 -9 26 -6
31 9 14 13 13 24 -8z m131 4 c0 -3 -4 -8 -10 -11 -5 -3 -10 -1 -10 4 0 6 5 11
10 11 6 0 10 -2 10 -4z m-30 -14 c0 -5 -11 -14 -24 -20 -19 -8 -25 -8 -29 3
-3 7 -3 16 0 19 9 9 53 7 53 -2z m-120 -48 c0 -2 -7 -4 -15 -4 -8 0 -15 4 -15
10 0 5 7 7 15 4 8 -4 15 -8 15 -10z"/>
<path d="M4111 4097 c-11 -25 -24 -48 -30 -51 -6 -4 -11 -12 -11 -17 0 -6 4
-8 9 -4 5 3 12 1 15 -4 4 -5 -2 -12 -11 -14 -14 -4 -13 -5 4 -6 12 0 32 -11
44 -23 12 -13 19 -17 15 -10 -4 6 -2 12 3 12 6 0 9 10 7 23 -3 12 -5 22 -6 22
-1 0 -3 16 -5 35 l-4 35 19 -40 c11 -22 18 -58 17 -82 -1 -25 2 -42 8 -40 13
5 11 45 -6 132 -18 88 -40 98 -68 32z"/>
<path d="M3544 4039 c4 -27 3 -45 -4 -49 -22 -13 -22 -92 -1 -124 l19 -29 8
59 c4 33 8 86 8 119 1 51 -2 60 -18 63 -17 4 -18 0 -12 -39z m6 -139 c0 -11
-2 -20 -4 -20 -2 0 -6 9 -9 20 -3 11 -1 20 4 20 5 0 9 -9 9 -20z"/>
<path d="M2879 4056 c-3 -3 -23 -8 -45 -12 -94 -14 -109 -20 -112 -40 -2 -11
31 -86 73 -167 41 -80 75 -148 75 -150 0 -2 -25 -9 -55 -16 -45 -10 -55 -16
-55 -33 0 -22 9 -22 105 -2 28 5 32 2 48 -32 18 -36 18 -37 -3 -56 -28 -26
-13 -44 27 -32 15 4 35 9 43 10 8 1 38 5 65 9 28 4 55 12 60 17 7 7 5 9 -5 6
-8 -2 -22 2 -31 10 -15 13 -15 17 -4 29 17 16 25 17 25 0 0 -7 9 -21 21 -30
17 -15 26 -16 55 -7 19 6 34 18 34 26 0 18 -8 18 -26 -1 -23 -23 -33 -18 -29
15 2 17 -2 36 -11 44 -7 8 -14 22 -14 31 0 12 -6 16 -20 12 -22 -6 -28 9 -7
16 13 4 11 11 -101 222 -48 91 -75 131 -88 133 -11 2 -22 1 -25 -2z m21 -272
c12 -31 12 -34 1 -34 -5 0 -11 8 -15 18 -3 9 -9 23 -12 30 -3 6 -1 12 5 12 7
0 16 -12 21 -26z m80 -88 c0 -3 -4 -8 -10 -11 -5 -3 -10 -1 -10 4 0 6 5 11 10
11 6 0 10 -2 10 -4z m-17 -59 c-5 -8 -8 -7 -11 1 -2 7 -8 10 -13 6 -10 -6 -12
9 -2 19 10 10 34 -14 26 -26z m75 -49 c-3 -7 -11 -13 -18 -13 -7 0 -15 6 -17
13 -3 7 4 12 17 12 13 0 20 -5 18 -12z m-48 -2 c0 -9 -40 -13 -46 -5 -3 5 6 9
20 9 14 0 26 -2 26 -4z"/>
<path d="M2402 3954 c-8 -14 -24 -17 -80 -15 -66 2 -71 0 -69 -19 1 -13 8 -20
22 -20 37 -1 102 -37 131 -74 27 -33 57 -46 67 -28 5 8 -19 148 -29 163 -9 14
-32 10 -42 -7z"/>
<path d="M4257 3943 c-11 -20 -31 -90 -29 -103 3 -13 2 -13 -7 0 -9 12 -11 12
-16 -2 -17 -44 11 -79 51 -64 12 5 13 10 4 28 -10 21 -10 22 4 5 10 -13 21
-17 36 -12 19 6 20 11 14 53 -11 74 -19 97 -36 100 -9 2 -18 -1 -21 -5z"/>
<path d="M2157 3916 c-46 -17 -67 -34 -67 -55 0 -13 -2 -13 -9 -3 -10 17 -48
-32 -61 -80 -11 -38 -3 -81 14 -71 7 5 7 2 -1 -8 -23 -29 75 -120 113 -105 8
3 14 1 14 -4 0 -9 31 -16 106 -24 53 -6 113 -31 120 -51 10 -26 -4 -61 -31
-73 -28 -13 -35 -52 -9 -52 8 0 38 10 66 22 46 20 49 23 32 35 -10 7 -24 11
-31 9 -7 -3 -15 -1 -18 4 -4 6 1 10 9 10 11 0 16 9 16 28 0 16 3 32 7 36 4 3
8 13 9 21 5 31 58 124 68 118 6 -4 0 5 -14 19 -35 35 -55 44 -135 57 -38 7
-81 14 -94 17 -22 5 -23 3 -18 -25 4 -17 2 -33 -3 -36 -6 -4 -10 9 -10 29 0
28 -5 37 -27 48 -39 18 -44 70 -10 93 17 11 23 22 20 35 -6 23 -6 23 -56 6z
m-102 -176 c-3 -5 -11 -10 -16 -10 -6 0 -7 5 -4 10 3 6 11 10 16 10 6 0 7 -4
4 -10z m125 -35 c0 -8 -7 -15 -15 -15 -8 0 -15 5 -15 11 0 5 5 7 10 4 6 -3 10
-1 10 4 0 6 2 11 5 11 3 0 5 -7 5 -15z m218 -24 c3 -8 -1 -12 -9 -9 -7 2 -15
10 -17 17 -3 8 1 12 9 9 7 -2 15 -10 17 -17z m-148 -33 c0 -23 -2 -39 -5 -37
-8 9 -12 79 -4 79 5 0 9 -19 9 -42z"/>
<path d="M2705 3889 c-3 -14 -5 -29 -4 -35 2 -5 0 -25 -4 -44 -6 -31 -37 -256
-39 -287 -1 -7 -5 -10 -9 -7 -9 5 -52 -47 -44 -54 3 -3 11 0 17 6 13 13 42 17
34 4 -7 -11 58 -5 101 9 38 12 39 32 2 37 -13 2 -28 8 -33 12 -5 5 -17 5 -27
-1 -15 -7 -17 -6 -13 6 3 8 10 13 14 10 5 -3 12 21 15 52 4 32 13 99 21 149
13 85 13 93 -5 130 -19 38 -19 39 -26 13z"/>
<path d="M4148 3802 c-45 -27 -35 -54 15 -45 23 5 27 10 25 34 -3 33 -3 33
-40 11z"/>
<path d="M3831 3733 c-20 -19 -21 -24 -8 -29 28 -11 43 -1 37 26 l-5 25 -24
-22z"/>
<path d="M2524 3616 c-3 -7 -1 -29 4 -47 l10 -34 1 48 c1 47 -5 60 -15 33z"/>
<path d="M4135 3603 c-140 -26 -166 -35 -163 -57 2 -15 9 -20 25 -18 43 6 101
-18 131 -54 20 -24 34 -33 46 -28 18 7 18 8 -2 107 -11 55 -11 55 -37 50z"/>
<path d="M2466 3541 c-12 -14 -14 -19 -4 -17 19 2 38 16 38 27 0 15 -16 10
-34 -10z"/>
<path d="M3906 3533 c6 -24 5 -25 -8 -12 -9 8 -14 17 -11 22 5 9 -10 9 -31 1
-9 -3 -16 -10 -16 -16 0 -5 5 -6 10 -3 6 3 10 2 10 -3 0 -10 -60 -25 -68 -17
-3 3 2 5 11 5 10 0 17 5 17 10 0 12 -39 12 -99 1 -42 -8 -65 -26 -55 -43 10
-16 24 -7 24 15 0 16 6 10 20 -22 11 -24 20 -54 20 -67 0 -12 5 -26 10 -29 6
-4 8 -10 6 -14 -3 -4 6 -59 19 -122 39 -180 40 -200 13 -221 -17 -12 -20 -20
-12 -28 8 -8 31 -7 85 3 l74 13 6 55 6 54 1 -47 c2 -47 3 -48 35 -48 48 0 54
9 45 56 -6 29 -15 43 -28 47 -23 6 -27 27 -5 27 19 0 20 -6 -11 146 -40 203
-55 264 -65 264 -5 0 -6 -12 -3 -27z m28 -202 c6 -9 -53 -51 -70 -51 -5 0 8
11 28 24 21 12 35 26 31 29 -3 4 -4 7 0 7 3 0 8 -4 11 -9z m-4 -115 c0 -8 6
-17 13 -19 7 -3 5 -6 -5 -6 -10 -1 -18 1 -18 3 0 2 -3 11 -6 20 -3 9 -1 16 5
16 6 0 11 -6 11 -14z m-85 -6 c-3 -5 -12 -10 -18 -10 -7 0 -6 4 3 10 19 12 23
12 15 0z m100 -40 c-3 -5 -12 -10 -18 -10 -7 0 -6 4 3 10 19 12 23 12 15 0z
m15 -25 c0 -2 -9 -9 -20 -15 -24 -13 -50 -2 -29 11 15 9 49 12 49 4z m-122
-86 c-3 -8 -7 -3 -11 10 -4 17 -3 21 5 13 5 -5 8 -16 6 -23z"/>
<path d="M2064 3535 c-7 -18 13 -141 27 -167 12 -22 32 -23 49 -3 7 9 26 15
44 13 18 -1 37 1 43 5 6 4 14 3 18 -3 3 -5 15 -10 26 -10 14 0 18 6 16 22 -2
12 -8 23 -13 24 -5 1 -28 7 -51 14 -31 10 -49 10 -73 1 -28 -9 -31 -9 -20 4 7
8 19 15 27 15 9 0 -2 19 -28 50 -45 53 -56 59 -65 35z"/>
<path d="M3517 3443 l-3 -38 -9 33 c-8 34 -8 34 -54 27 -25 -4 -50 -10 -56
-13 -5 -4 -18 -5 -29 -3 -11 1 -16 -2 -11 -9 11 -18 -15 -40 -49 -41 -17 -1
-24 -3 -14 -6 15 -4 23 -23 34 -78 2 -11 6 -31 9 -45 16 -70 15 -80 -8 -81
-12 -1 -25 -1 -29 0 -4 0 -13 -9 -19 -21 -11 -20 -10 -21 34 -16 44 5 45 5 51
-26 3 -17 11 -53 17 -81 15 -65 13 -87 -6 -101 -21 -16 -8 -46 19 -42 15 2 20
9 18 25 -3 24 9 36 31 27 9 -3 13 -12 10 -21 -6 -16 -5 -16 107 3 64 10 110
25 110 35 0 10 -45 30 -59 26 -5 -1 -8 0 -8 3 1 3 -8 19 -21 37 -12 17 -18 34
-13 37 5 3 12 -1 15 -10 12 -31 17 -6 7 32 -6 22 -13 55 -16 74 -4 19 -13 71
-21 115 -27 141 -27 139 -5 160 28 24 26 35 -3 35 -21 0 -25 -5 -29 -37z m43
-242 c0 -6 -4 -13 -10 -16 -5 -3 -10 1 -10 9 0 9 5 16 10 16 6 0 10 -4 10 -9z
m-23 -53 c-3 -8 -6 -5 -6 6 -1 11 2 17 5 13 3 -3 4 -12 1 -19z m-52 -78 c-3
-5 -10 -10 -16 -10 -5 0 -9 5 -9 10 0 6 7 10 16 10 8 0 12 -4 9 -10z m-37 -12
c-8 -22 -36 -34 -50 -20 -10 10 -10 15 2 22 21 14 52 12 48 -2z m96 -74 c22
-21 20 -33 -4 -27 -26 7 -48 43 -26 43 8 0 22 -7 30 -16z m-34 -23 c0 -6 -4
-13 -10 -16 -5 -3 -10 1 -10 9 0 9 5 16 10 16 6 0 10 -4 10 -9z m90 -1 c0 -5
-2 -10 -4 -10 -3 0 -8 5 -11 10 -3 6 -1 10 4 10 6 0 11 -4 11 -10z"/>
<path d="M3305 3432 c-44 -5 -54 -21 -11 -17 35 3 55 11 45 18 -2 1 -17 1 -34
-1z"/>
<path d="M4064 3403 c-4 -16 -17 -39 -29 -53 -18 -20 -21 -30 -14 -48 5 -13
13 -21 17 -18 5 3 18 -4 30 -14 12 -11 26 -20 31 -20 6 0 8 -7 5 -15 -4 -10 0
-15 14 -15 12 0 23 4 26 9 7 10 -25 170 -37 189 -14 21 -36 13 -43 -15z"/>
<path d="M3075 3390 c-38 -10 -64 -18 -57 -19 7 0 10 -6 6 -12 -5 -8 -10 -7
-16 4 -5 9 -14 14 -21 12 -6 -2 -24 -6 -39 -9 -36 -8 -36 -31 0 -44 25 -8 29
-17 41 -78 7 -38 17 -82 21 -99 5 -16 11 -51 15 -77 7 -63 14 -78 34 -78 14
-1 14 -2 -2 -11 -11 -7 -16 -17 -12 -29 15 -48 13 -61 -11 -77 -22 -14 -23
-18 -10 -31 18 -19 46 -9 46 17 0 11 5 23 10 26 6 3 10 1 10 -4 0 -6 5 -11 10
-11 7 0 7 7 0 20 -15 28 17 41 37 14 12 -16 11 -20 -12 -32 -14 -7 -30 -10
-35 -7 -6 3 -10 2 -10 -4 0 -5 3 -12 8 -14 11 -7 131 20 146 32 7 6 22 9 32 5
11 -3 15 -2 9 3 -5 4 -11 17 -13 28 -3 20 -2 20 13 1 8 -11 15 -23 15 -28 0
-4 7 -5 16 -1 13 5 13 7 2 14 -10 7 -10 9 0 9 6 0 12 5 12 10 0 6 -9 10 -20
10 -21 0 -38 30 -44 79 -2 14 -18 100 -35 190 -24 124 -29 166 -20 172 7 4 9
14 6 23 -8 20 -41 19 -132 -4z m65 -10 c0 -5 -5 -10 -11 -10 -5 0 -7 5 -4 10
3 6 8 10 11 10 2 0 4 -4 4 -10z m-55 -20 c3 -5 2 -10 -4 -10 -5 0 -13 5 -16
10 -3 6 -2 10 4 10 5 0 13 -4 16 -10z m2 -102 c-3 -8 -6 -5 -6 6 -1 11 2 17 5
13 3 -3 4 -12 1 -19z m108 12 c3 -5 2 -10 -4 -10 -5 0 -13 5 -16 10 -3 6 -2
10 4 10 5 0 13 -4 16 -10z m-95 -61 c0 -6 -4 -7 -10 -4 -5 3 -10 11 -10 16 0
6 5 7 10 4 6 -3 10 -11 10 -16z m74 15 c9 -3 16 -13 16 -21 0 -10 -6 -13 -16
-9 -9 3 -18 6 -20 6 -2 0 -4 7 -4 15 0 17 2 18 24 9z m-69 -182 c-3 -3 -11 0
-18 7 -9 10 -8 11 6 5 10 -3 15 -9 12 -12z m5 -72 c0 -5 -2 -10 -4 -10 -3 0
-8 5 -11 10 -3 6 -1 10 4 10 6 0 11 -4 11 -10z m117 -36 c-3 -3 -12 -4 -19 -1
-8 3 -5 6 6 6 11 1 17 -2 13 -5z m-37 -14 c0 -5 -2 -10 -4 -10 -3 0 -8 5 -11
10 -3 6 -1 10 4 10 6 0 11 -4 11 -10z"/>
<path d="M2795 3337 c-55 -12 -70 -21 -73 -43 -2 -13 6 -23 26 -30 19 -7 36
-26 51 -58 18 -36 28 -46 47 -46 19 0 24 5 24 24 0 22 -29 160 -33 161 -1 1
-20 -3 -42 -8z"/>
<path d="M2635 3305 c-5 -2 -26 -6 -46 -9 -25 -5 -38 -13 -42 -26 -3 -11 -11
-20 -17 -20 -9 0 -9 4 1 16 12 15 9 16 -25 11 -20 -3 -39 -7 -42 -10 -4 -4 43
-265 66 -362 25 -105 24 -107 -6 -132 -47 -37 -21 -47 72 -28 44 9 86 17 94
19 43 7 98 18 118 22 14 3 22 12 22 25 0 17 -5 20 -25 17 -31 -6 -41 6 -50 62
-4 25 -13 70 -20 100 -8 30 -16 71 -19 90 -5 33 -30 159 -41 208 -5 20 -16 25
-40 17z m-76 -122 c0 -29 -2 -33 -8 -18 -7 18 -4 55 5 55 2 0 4 -17 3 -37z
m69 -18 c-3 -3 -9 2 -12 12 -6 14 -5 15 5 6 7 -7 10 -15 7 -18z m26 -102 c-4
-10 -7 -28 -7 -40 1 -13 -5 -23 -12 -23 -7 0 -18 -13 -24 -30 -6 -16 -16 -44
-22 -60 -7 -17 -13 -29 -15 -27 -3 3 29 96 57 165 7 17 17 32 22 32 5 0 6 -8
1 -17z m47 -192 c7 12 9 11 9 -1 0 -14 -19 -51 -21 -40 -5 32 -7 52 -2 41 5
-11 7 -11 14 0z"/>
<path d="M2396 3237 c-13 -20 -16 -31 -8 -39 13 -13 35 24 30 50 -3 14 -7 11
-22 -11z"/>
<path d="M2322 3243 c-33 -4 -34 -5 -27 -41 4 -20 10 -39 13 -42 4 -3 8 -22 8
-43 2 -47 17 -66 42 -51 11 8 17 25 18 51 0 22 4 46 9 53 6 10 4 12 -7 7 -10
-3 -19 3 -27 19 -15 33 -14 33 9 29 13 -2 20 2 20 11 0 8 -6 13 -12 12 -7 0
-28 -3 -46 -5z"/>
<path d="M4199 3213 c-24 -63 -37 -79 -81 -108 -43 -28 -64 -65 -36 -65 25 0
174 33 181 40 5 4 3 36 -4 71 -17 91 -40 114 -60 62z m-49 -117 c0 -2 -7 -7
-16 -10 -8 -3 -12 -2 -9 4 6 10 25 14 25 6z"/>
<path d="M4950 3196 c0 -9 -7 -16 -15 -16 -8 0 -15 -5 -15 -11 0 -5 5 -7 10
-4 6 3 10 -1 10 -10 0 -9 5 -13 10 -10 6 4 8 11 4 16 -3 5 -1 16 6 24 7 9 8
15 0 20 -5 3 -10 -1 -10 -9z"/>
<path d="M4950 3071 l0 -24 -23 21 c-36 34 -47 28 -48 -25 0 -27 -2 -55 -3
-63 -2 -8 -9 -58 -15 -110 -11 -80 -39 -190 -66 -263 -6 -13 -3 -16 11 -12 13
4 12 2 -3 -6 -22 -12 -38 -52 -27 -70 3 -6 -1 -16 -9 -22 -9 -7 -37 -52 -63
-102 -26 -49 -65 -116 -86 -149 -29 -42 -37 -61 -29 -69 13 -13 14 -27 2 -27
-5 0 -11 7 -13 16 -2 11 -15 0 -43 -35 -22 -28 -68 -79 -102 -113 -34 -33 -60
-65 -56 -71 3 -6 1 -7 -4 -4 -6 4 -18 -2 -28 -13 -14 -16 -16 -29 -11 -67 5
-41 4 -45 -7 -29 -15 20 -37 14 -37 -10 0 -8 -7 -14 -15 -14 -21 0 -19 7 10
38 45 49 22 55 -35 9 -32 -24 -36 -50 -19 -110 l10 -38 32 22 c18 13 39 30 49
38 9 9 30 27 47 40 17 13 31 29 31 37 0 7 6 11 13 9 6 -3 47 31 91 75 72 73
78 86 37 80 -12 -1 -13 1 -3 13 7 8 10 22 6 31 -3 9 -1 16 5 16 6 0 11 -4 11
-8 0 -5 7 -17 15 -28 11 -13 13 -14 9 -3 -3 10 1 19 11 23 9 3 13 2 10 -4 -3
-6 -4 -10 -1 -10 8 0 96 118 96 129 0 5 11 22 25 37 14 15 25 31 25 36 0 6 9
22 20 36 15 19 19 34 14 55 -5 25 -4 29 10 24 13 -5 24 10 50 66 22 48 30 74
22 79 -7 5 -3 14 12 28 27 25 28 35 5 50 -15 9 -14 10 6 4 21 -6 23 -4 19 19
-3 15 -1 25 5 24 5 -1 18 28 27 66 17 63 16 71 -2 68 -5 0 -8 4 -8 10 0 6 7 9
15 5 8 -3 15 -2 15 2 1 4 5 26 9 50 6 31 5 42 -4 42 -8 0 -12 -12 -11 -31 0
-18 -5 -34 -12 -36 -8 -3 -10 1 -6 11 5 12 2 15 -11 10 -32 -13 -12 30 22 46
20 9 33 23 33 35 1 11 5 55 8 98 6 61 5 76 -5 73 -7 -3 -13 -1 -13 3 0 5 6 11
13 14 6 3 2 4 -10 4 -17 -1 -23 -7 -23 -26z m-85 -331 c3 -5 1 -10 -4 -10 -6
0 -11 5 -11 10 0 6 2 10 4 10 3 0 8 -4 11 -10z m35 -20 c-8 -5 -19 -10 -25
-10 -5 0 -3 5 5 10 8 5 20 10 25 10 6 0 3 -5 -5 -10z m15 -70 c-3 -5 -13 -10
-21 -10 -8 0 -12 5 -9 10 3 6 13 10 21 10 8 0 12 -4 9 -10z m-65 -55 c0 -8 -4
-15 -10 -15 -5 0 -7 7 -4 15 4 8 8 15 10 15 2 0 4 -7 4 -15z m-168 -437 c-12
-12 -42 -4 -42 11 0 12 44 19 49 8 2 -5 -1 -13 -7 -19z m-159 -159 c6 -23 -1
-49 -13 -49 -9 0 -18 41 -12 58 6 19 19 14 25 -9z m-131 -104 c3 -14 1 -28 -3
-31 -5 -3 -9 1 -9 10 0 8 -3 21 -6 30 -3 9 -2 16 4 16 5 0 12 -11 14 -25z
m-85 -127 c-3 -7 -5 -2 -5 12 0 14 2 19 5 13 2 -7 2 -19 0 -25z m-22 -8 c3 -5
1 -10 -4 -10 -6 0 -11 5 -11 10 0 6 2 10 4 10 3 0 8 -4 11 -10z"/>
<path d="M4460 2966 c-45 -9 -56 -15 -58 -34 -2 -12 -7 -20 -12 -17 -5 3 -7
12 -3 20 5 16 -5 19 -31 9 -9 -3 -16 -15 -16 -25 0 -14 7 -19 27 -19 15 0 51
-5 79 -12 42 -10 53 -17 62 -40 12 -32 52 -40 52 -10 -1 38 -26 136 -35 138
-6 1 -35 -4 -65 -10z m25 -66 c3 -5 -1 -10 -9 -10 -9 0 -16 5 -16 10 0 6 4 10
9 10 6 0 13 -4 16 -10z"/>
<path d="M4170 2908 c-19 -5 -37 -13 -40 -17 -8 -12 -49 -20 -55 -10 -8 12
-32 0 -32 -16 0 -16 54 -38 71 -28 6 3 4 -2 -5 -11 -15 -16 -14 -27 7 -132 13
-64 27 -121 31 -127 4 -7 8 -21 9 -32 0 -11 4 -44 8 -73 7 -48 6 -54 -16 -71
-19 -16 -21 -22 -10 -33 11 -11 14 -10 21 1 5 7 13 11 19 7 6 -4 29 -3 52 0
31 5 40 10 35 22 -4 12 -3 13 9 3 22 -19 130 5 122 26 -3 8 -9 33 -12 54 -5
27 -11 38 -19 35 -21 -8 -26 6 -10 24 14 16 14 27 -5 116 -52 248 -50 243 -66
237 -9 -3 -13 -12 -9 -22 14 -34 24 -136 15 -145 -7 -7 -10 -5 -10 3 0 7 -4
10 -9 6 -5 -3 -12 -1 -16 5 -3 5 1 10 10 10 12 0 14 7 9 28 -11 51 -24 68 -52
66 -15 0 -26 -4 -24 -7 13 -32 14 -41 4 -45 -13 -4 9 -32 26 -32 5 0 12 -13
14 -30 3 -20 0 -30 -9 -30 -7 0 -12 -3 -12 -7 5 -31 -2 -35 -24 -15 -13 12
-34 22 -48 22 -21 1 -22 2 -6 11 9 5 22 7 29 3 6 -4 5 3 -4 15 -15 21 -13 71
3 71 4 0 7 8 7 18 -1 25 20 72 32 72 5 0 10 -5 10 -11 0 -5 -4 -7 -10 -4 -5 3
-10 2 -10 -3 0 -12 26 -23 34 -15 11 11 6 30 -11 51 -15 17 -23 18 -53 10z
m115 -228 c3 -5 1 -10 -4 -10 -6 0 -11 5 -11 10 0 6 2 10 4 10 3 0 8 -4 11
-10z m-38 -22 c-3 -8 -6 -5 -6 6 -1 11 2 17 5 13 3 -3 4 -12 1 -19z m78 -46
c-8 -8 -25 10 -19 20 4 6 9 5 15 -3 4 -7 6 -15 4 -17z m-119 -38 c14 -15 19
-24 10 -21 -8 3 -18 2 -22 -4 -6 -10 -44 26 -44 43 0 17 30 7 56 -18z m134 11
c0 -8 -2 -15 -4 -15 -2 0 -6 7 -10 15 -3 8 -1 15 4 15 6 0 10 -7 10 -15z m-85
-66 c11 -16 1 -19 -13 -3 -7 8 -8 14 -3 14 5 0 13 -5 16 -11z m65 -3 c0 -2 -7
-7 -16 -10 -8 -3 -12 -2 -9 4 6 10 25 14 25 6z m-5 -46 c3 -5 1 -10 -4 -10
-15 0 -14 -47 2 -53 9 -4 9 -6 -1 -6 -15 -1 -35 47 -28 66 6 15 22 17 31 3z"/>
<path d="M1613 2874 c4 -16 11 -55 17 -86 12 -62 33 -81 26 -23 -3 26 -1 35
10 35 11 0 13 -6 9 -21 -5 -14 -3 -20 7 -18 41 5 30 -16 -31 -58 -5 -3 53
-180 79 -242 12 -28 26 -48 31 -45 5 3 6 -1 3 -9 -8 -22 124 -257 146 -257 5
0 12 -10 16 -22 19 -60 282 -335 310 -324 8 3 14 -1 14 -9 0 -15 55 -61 79
-67 7 -2 24 -13 37 -25 13 -13 29 -20 38 -17 10 4 16 1 16 -9 0 -8 7 -18 16
-21 24 -9 29 -7 16 6 -20 20 -14 30 6 11 10 -10 17 -23 15 -28 -2 -6 26 -25
62 -43 46 -23 67 -28 70 -20 2 7 5 20 8 28 4 12 6 11 12 -4 5 -11 3 -21 -6
-26 -7 -5 -11 -12 -8 -15 11 -10 69 -14 69 -4 0 5 5 9 10 9 6 0 10 -9 10 -19
0 -20 21 -30 135 -65 170 -53 443 -78 625 -57 58 7 106 14 108 15 1 2 -2 14
-7 28 -12 31 2 59 17 33 5 -10 7 -27 4 -38 -5 -18 -2 -20 37 -13 24 3 50 13
58 21 17 18 33 19 33 4 0 -5 5 -7 10 -4 6 4 8 11 5 16 -4 5 2 9 12 9 11 0 25
6 32 12 11 11 13 10 8 -5 -6 -15 -2 -16 21 -11 38 9 63 24 58 33 -3 4 -1 21 4
37 8 29 8 29 9 -9 l1 -37 33 13 c22 10 31 20 30 33 -1 10 0 13 3 7 8 -19 26
-16 98 17 64 30 83 44 69 53 -5 2 -2 2 5 1 18 -5 112 48 112 64 0 6 -4 12 -8
12 -4 0 -14 -6 -21 -12 -11 -11 -12 -9 -3 8 6 12 8 24 5 28 -3 3 -1 6 5 6 7 0
11 15 10 34 -1 40 1 40 -97 -22 -31 -21 -75 -46 -99 -56 -23 -10 -42 -23 -42
-28 0 -5 -4 -7 -10 -3 -5 3 -31 -5 -57 -18 -26 -13 -82 -34 -124 -46 -70 -22
-75 -25 -71 -48 2 -13 1 -23 -4 -22 -23 4 -32 -3 -27 -20 3 -10 -1 -22 -7 -26
-9 -5 -10 -1 -5 14 5 16 2 21 -10 21 -11 0 -15 5 -12 15 4 8 2 17 -4 20 -16
11 -69 -6 -69 -21 0 -15 -12 -19 -24 -6 -4 4 -98 6 -209 4 -172 -3 -219 0
-317 18 -134 24 -289 75 -410 133 -47 23 -87 40 -89 38 -2 -1 -7 1 -10 6 -3 5
-24 20 -46 33 -22 13 -87 60 -143 104 -57 45 -114 87 -127 93 -12 7 -29 21
-36 30 -11 13 -11 15 -1 9 8 -5 -23 36 -69 90 -45 54 -100 127 -122 162 -39
62 -41 63 -76 58 -34 -5 -34 -5 -9 5 34 13 33 19 -20 129 -45 96 -63 146 -98
274 -13 49 -29 93 -36 98 -10 6 -10 8 0 8 39 0 -21 49 -69 55 -16 2 -34 7 -40
11 -8 4 -9 -3 -6 -22z m127 -144 c0 -5 -4 -10 -10 -10 -5 0 -10 5 -10 10 0 6
5 10 10 10 6 0 10 -4 10 -10z m87 -266 c-3 -3 -12 -4 -19 -1 -8 3 -5 6 6 6 11
1 17 -2 13 -5z m7 -77 c14 -10 15 -14 4 -14 -7 0 -19 6 -26 14 -7 7 -9 13 -4
13 4 0 16 -6 26 -13z m84 -199 c3 -37 -2 -35 -12 5 -3 15 -3 27 2 27 4 0 9
-14 10 -32z m62 2 c0 -5 -5 -10 -11 -10 -5 0 -7 5 -4 10 3 6 8 10 11 10 2 0 4
-4 4 -10z m29 -77 c2 -2 -3 -3 -11 -3 -9 0 -19 7 -22 16 -6 15 -4 15 11 3 10
-7 20 -15 22 -16z m117 -100 c-7 -7 -26 7 -26 19 0 6 6 6 15 -2 9 -7 13 -15
11 -17z m-16 -43 c7 0 7 -15 1 -38 -1 -1 -10 2 -21 8 -24 13 -28 45 -4 36 9
-3 19 -6 24 -6z m105 -50 c3 -5 1 -10 -4 -10 -6 0 -11 5 -11 10 0 6 2 10 4 10
3 0 8 -4 11 -10z m170 -180 c-3 -5 -12 -10 -18 -10 -7 0 -6 4 3 10 19 12 23
12 15 0z m1730 0 c3 -5 1 -10 -4 -10 -6 0 -11 5 -11 10 0 6 2 10 4 10 3 0 8
-4 11 -10z m-1576 -26 c2 -2 -3 -4 -11 -4 -9 0 -18 -7 -22 -15 -3 -8 -13 -15
-22 -15 -13 0 -14 3 -4 15 6 8 9 19 5 25 -5 7 2 9 22 4 15 -4 30 -8 32 -10z
m1516 -34 c3 -5 1 -10 -4 -10 -6 0 -11 5 -11 10 0 6 2 10 4 10 3 0 8 -4 11
-10z m-1435 -20 c0 -11 -4 -20 -10 -20 -5 0 -14 9 -20 20 -9 17 -8 20 10 20
13 0 20 -7 20 -20z m1360 -20 c0 -5 -2 -10 -4 -10 -3 0 -8 5 -11 10 -3 6 -1
10 4 10 6 0 11 -4 11 -10z m-63 -56 c-3 -3 -12 -4 -19 -1 -8 3 -5 6 6 6 11 1
17 -2 13 -5z m-137 -48 c0 -12 -5 -7 -19 24 -11 24 -11 24 3 6 9 -11 16 -24
16 -30z m-1020 4 c-6 -12 -14 -20 -17 -17 -2 3 1 14 8 26 17 26 24 19 9 -9z
m89 -3 c0 -21 -1 -21 -9 -2 -12 28 -12 37 0 30 6 -3 10 -16 9 -28z m155 -39
c19 -38 19 -38 2 -38 -7 0 -16 8 -19 18 -2 9 -8 25 -12 35 -13 31 13 18 29
-15z m736 22 c0 -5 -2 -10 -4 -10 -3 0 -8 5 -11 10 -3 6 -1 10 4 10 6 0 11 -4
11 -10z m-489 -33 c-10 -9 -11 -8 -5 6 3 10 9 15 12 12 3 -3 0 -11 -7 -18z
m29 -17 c0 -5 -5 -10 -11 -10 -5 0 -7 5 -4 10 3 6 8 10 11 10 2 0 4 -4 4 -10z"/>
<path d="M3952 2843 c-7 -10 -10 -12 -7 -5 5 10 -6 12 -46 9 -30 -1 -54 -8
-57 -15 -2 -7 1 -12 7 -12 6 0 8 -7 5 -15 -4 -10 0 -15 15 -15 11 0 25 -9 31
-20 16 -30 31 -24 25 9 -4 24 -1 30 20 35 16 4 25 13 25 26 0 24 -2 25 -18 3z"/>
<path d="M3757 2812 c-9 -10 -18 -33 -20 -51 -2 -18 -10 -37 -18 -42 -10 -6
-10 -9 -1 -9 6 0 12 -5 12 -11 0 -6 -7 -8 -16 -5 -12 4 -15 2 -10 -9 6 -18 -2
-45 -15 -45 -5 0 -9 6 -9 14 0 7 -7 20 -17 27 -15 13 -15 12 -3 -11 12 -23 12
-24 -3 -11 -15 12 -17 11 -17 -5 0 -17 -1 -17 -15 2 -14 19 -14 19 -15 -3 0
-12 7 -28 15 -37 8 -8 11 -17 6 -20 -6 -4 -6 -18 -1 -36 5 -17 7 -30 4 -30 -3
0 0 -9 6 -20 6 -11 18 -20 26 -20 12 0 15 -6 10 -25 -5 -19 -3 -23 9 -19 8 4
15 12 15 19 0 8 5 17 12 21 7 5 8 3 3 -7 -8 -12 -6 -12 8 0 12 9 15 21 11 35
-4 14 -3 18 4 11 18 -17 19 -81 2 -70 -5 3 -11 0 -11 -7 -1 -7 -3 -23 -4 -35
-1 -13 2 -23 6 -23 5 0 9 6 9 14 0 8 4 17 9 20 5 3 8 -7 7 -23 -2 -22 4 -33
21 -42 28 -15 29 -24 4 -41 -12 -9 -17 -19 -12 -27 6 -10 10 -9 14 3 7 18 33
22 39 5 2 -7 17 -8 41 -4 27 5 35 11 28 19 -5 6 -12 47 -15 90 -3 42 -8 81
-11 86 -3 5 -12 48 -20 97 -9 48 -20 102 -25 118 -10 31 -18 77 -19 108 -1 22
-23 22 -44 -1z m-17 -147 c0 -8 0 -18 1 -22 0 -4 -4 -9 -10 -11 -6 -2 -11 8
-11 22 0 14 5 26 10 26 6 0 10 -7 10 -15z m65 5 c-3 -5 -11 -10 -16 -10 -6 0
-7 5 -4 10 3 6 11 10 16 10 6 0 7 -4 4 -10z m-135 -51 c0 -5 -4 -9 -10 -9 -5
0 -10 7 -10 16 0 8 5 12 10 9 6 -3 10 -10 10 -16z m35 1 c-3 -5 -11 -10 -16
-10 -6 0 -7 5 -4 10 3 6 11 10 16 10 6 0 7 -4 4 -10z m-5 -45 c-7 -8 -19 -15
-27 -15 -8 0 -11 -5 -7 -11 4 -7 2 -10 -5 -8 -20 7 -15 23 10 36 32 17 44 16
29 -2z m40 -18 c0 -18 -2 -19 -10 -7 -13 20 -13 43 0 35 6 -3 10 -16 10 -28z
m37 -32 c-4 -8 -2 -17 4 -20 5 -4 6 -11 3 -17 -10 -15 -25 17 -18 36 3 9 8 16
11 16 3 0 3 -7 0 -15z m58 -5 c3 -5 1 -10 -4 -10 -6 0 -11 5 -11 10 0 6 2 10
4 10 3 0 8 -4 11 -10z m35 -101 c0 -6 -4 -7 -10 -4 -5 3 -10 11 -10 16 0 6 5
7 10 4 6 -3 10 -11 10 -16z"/>
<path d="M3682 2810 c-18 -4 -44 -20 -59 -34 -15 -15 -21 -26 -13 -24 8 2 22
12 32 23 9 11 17 15 18 8 0 -6 -4 -14 -10 -18 -5 -3 -7 -12 -4 -20 4 -8 10
-12 15 -9 5 3 7 9 4 14 -7 11 32 33 45 25 6 -3 10 -1 10 6 0 6 8 18 18 25 16
13 16 13 -3 13 -11 -1 -35 -5 -53 -9z"/>
<path d="M4437 2793 c-4 -3 -7 -17 -7 -29 0 -13 -5 -26 -11 -30 -8 -5 -6 -10
5 -16 16 -9 16 -11 -1 -31 -10 -11 -12 -17 -5 -13 7 4 12 1 12 -9 0 -8 7 -18
15 -21 8 -4 15 -12 15 -20 0 -8 6 -14 14 -14 8 0 16 -6 19 -12 2 -7 8 -10 12
-6 5 5 0 17 -10 28 -17 18 -17 20 -2 14 12 -4 17 -1 17 11 0 11 -5 15 -15 11
-9 -3 -15 0 -15 9 0 8 6 12 14 9 11 -4 12 2 5 33 -5 21 -11 50 -14 66 -5 26
-32 37 -48 20z"/>
<path d="M3495 2771 c-3 -5 -1 -12 5 -16 17 -11 12 -38 -6 -31 -14 5 -16 1
-11 -29 3 -19 2 -37 -3 -40 -11 -7 -18 38 -9 63 13 34 2 49 -30 44 -23 -3 -28
-8 -23 -25 3 -12 10 -28 16 -36 6 -7 11 -34 12 -60 2 -64 1 -63 26 -59 18 2
24 12 30 48 9 54 27 100 39 100 5 0 9 7 9 15 0 8 -5 15 -11 15 -5 0 -7 5 -4
10 3 6 -3 10 -14 10 -11 0 -22 -4 -26 -9z"/>
<path d="M3941 2747 c-16 -20 3 -67 27 -67 27 0 30 7 23 43 -7 35 -31 46 -50
24z"/>
<path d="M3210 2705 c0 -18 -27 -20 -32 -3 -3 7 -12 9 -22 5 -15 -6 -16 -10
-6 -22 7 -8 9 -15 5 -15 -4 0 -3 -6 3 -13 13 -15 9 -53 -4 -50 -5 1 -14 24
-20 50 -7 35 -12 43 -16 28 -5 -18 -6 -18 -7 -1 -1 12 -6 16 -17 12 -9 -3 -20
-6 -25 -6 -5 0 -9 -8 -9 -17 0 -15 -2 -16 -10 -3 -14 23 -23 4 -16 -34 4 -20
17 -42 29 -51 12 -8 16 -15 9 -15 -9 0 -8 -7 4 -25 9 -14 22 -25 29 -25 7 0
18 -7 25 -15 10 -12 10 -15 -3 -15 -10 0 -13 -6 -10 -20 3 -11 10 -20 15 -20
5 0 7 -4 4 -8 -3 -5 6 -27 20 -51 13 -24 24 -45 24 -46 0 -2 -25 -9 -55 -16
-48 -11 -55 -15 -55 -36 0 -19 4 -23 18 -19 9 3 39 10 66 17 32 8 50 18 53 30
8 29 30 30 37 3 7 -26 1 -44 -14 -44 -5 0 -7 8 -3 18 5 13 3 14 -6 6 -10 -9
-10 -17 -2 -32 16 -30 14 -60 -5 -70 -9 -5 -14 -14 -10 -21 9 -14 36 -14 36 0
0 8 4 8 13 1 8 -7 18 -7 27 -2 8 5 18 6 24 3 5 -3 15 2 23 12 7 11 13 13 13 6
0 -7 8 -10 18 -8 9 3 34 8 54 12 34 5 37 9 34 33 -2 15 -1 21 1 15 2 -7 9 -13
14 -13 6 0 7 -4 4 -10 -3 -5 1 -10 9 -10 13 0 12 6 -5 38 -12 20 -37 66 -56
102 -63 121 -67 125 -102 124 -37 -2 -41 12 -7 27 l24 11 -52 99 c-49 95 -66
117 -66 84z m-120 -99 c0 -3 -4 -8 -10 -11 -5 -3 -10 -1 -10 4 0 6 5 11 10 11
6 0 10 -2 10 -4z m76 -43 c-10 -10 -19 5 -10 18 6 11 8 11 12 0 2 -7 1 -15 -2
-18z m31 -93 c20 -10 40 -17 44 -15 16 11 88 14 94 5 4 -6 -10 -10 -34 -10
-22 0 -43 -4 -46 -10 -3 -5 -20 -10 -37 -10 -23 0 -29 -4 -24 -15 3 -8 1 -15
-4 -15 -6 0 -11 8 -12 18 0 9 -2 22 -2 28 -1 6 -7 19 -15 28 -18 21 -9 20 36
-4z m113 -45 c-7 -8 -9 -15 -4 -15 11 0 -18 -20 -29 -20 -4 0 0 11 9 25 9 14
21 25 26 25 6 0 5 -6 -2 -15z m55 -73 c-8 -8 -25 10 -19 20 4 6 9 5 15 -3 4
-7 6 -15 4 -17z m-69 -86 c22 -23 17 -28 -10 -11 -23 15 -25 15 -35 -2 -11
-20 -14 -14 -5 11 8 20 31 21 50 2z m69 -6 c3 -5 1 -10 -4 -10 -6 0 -11 5 -11
10 0 6 2 10 4 10 3 0 8 -4 11 -10z m53 -2 c-3 -7 -11 -13 -18 -13 -7 0 -15 6
-17 13 -3 7 4 12 17 12 13 0 20 -5 18 -12z"/>
<path d="M3180 2440 c0 -5 7 -7 15 -4 8 4 15 8 15 10 0 2 -7 4 -15 4 -8 0 -15
-4 -15 -10z"/>
<path d="M4593 2599 c-6 -6 -9 -18 -5 -27 4 -11 1 -14 -11 -9 -11 4 -18 -1
-22 -14 -4 -10 -18 -34 -33 -51 -15 -18 -21 -29 -14 -24 7 4 12 2 12 -4 0 -7
-7 -10 -15 -6 -32 12 -84 -31 -57 -48 12 -7 157 23 160 33 2 6 10 7 18 4 22
-8 18 44 -6 64 -24 21 -26 38 -4 29 12 -5 14 -1 8 17 -12 40 -19 48 -31 36z
m-38 -119 c3 -5 1 -10 -4 -10 -6 0 -11 5 -11 10 0 6 2 10 4 10 3 0 8 -4 11
-10z"/>
<path d="M2538 2584 c-29 -8 -20 -38 15 -54 26 -12 34 -25 47 -70 13 -44 17
-51 22 -32 4 14 2 20 -5 15 -7 -4 -8 0 -2 13 5 10 9 29 9 42 1 12 7 22 14 22
6 0 12 6 12 13 0 7 10 13 23 14 12 0 16 -1 10 -4 -7 -3 -13 -9 -13 -15 0 -6 7
-8 15 -4 12 4 14 0 9 -19 -4 -15 -2 -25 5 -25 6 0 11 7 11 16 0 8 4 13 9 9 5
-3 12 -1 16 5 4 6 11 8 16 5 5 -4 9 -2 9 4 0 12 -45 37 -75 43 -11 1 -23 7
-26 11 -7 10 -97 18 -121 11z"/>
<path d="M2433 2560 c-13 -5 -41 -11 -64 -14 -23 -3 -42 -6 -44 -8 -6 -9 9
-98 17 -98 5 0 6 6 2 13 -5 8 -2 8 9 -2 22 -17 22 -32 1 -24 -14 5 -16 1 -12
-25 3 -19 1 -29 -6 -25 -5 4 -7 0 -4 -9 4 -8 2 -21 -3 -29 -6 -10 -9 -2 -9 24
0 20 0 40 1 43 0 4 -5 11 -13 15 -10 7 -10 9 0 9 6 0 12 11 12 24 0 39 -12 86
-22 86 -5 0 -7 -4 -4 -8 3 -5 -8 -8 -25 -7 -34 2 -65 -17 -55 -33 4 -7 16 -12
26 -12 10 0 21 -4 24 -8 6 -10 44 -184 61 -284 7 -43 16 -91 20 -107 5 -22 1
-34 -15 -49 -27 -25 -19 -42 18 -37 95 12 189 37 204 56 30 35 5 129 -35 129
-14 0 -18 3 -10 8 19 12 18 117 -1 212 -10 47 -22 90 -27 96 -5 6 -6 14 -3 17
8 8 -4 57 -14 56 -4 0 -17 -4 -29 -9z m12 -122 c5 -18 3 -28 -4 -28 -6 0 -12
6 -12 13 -1 6 -3 22 -4 35 -3 30 12 15 20 -20z m45 -8 c0 -11 -4 -20 -10 -20
-5 0 -10 2 -10 4 0 2 -3 11 -6 20 -4 11 -1 16 10 16 9 0 16 -8 16 -20z m-36
-47 c10 -25 -10 -39 -23 -15 -10 19 -6 32 10 32 4 0 10 -8 13 -17z m-74 -13
c0 -5 -4 -10 -10 -10 -5 0 -10 5 -10 10 0 6 5 10 10 10 6 0 10 -4 10 -10z m85
-59 c3 -5 1 -12 -5 -16 -5 -3 -10 1 -10 9 0 18 6 21 15 7z m14 -98 l-1 -48
-10 34 c-5 18 -7 40 -4 47 10 27 16 14 15 -33z m-122 -53 c-1 -11 -5 -20 -9
-20 -10 0 -10 4 -2 24 8 22 13 20 11 -4z"/>
<path d="M3009 2505 c-3 -40 -2 -47 6 -70 5 -15 5 -17 -3 -6 -9 12 -12 10 -16
-10 -3 -13 -6 -33 -6 -44 0 -26 -7 -78 -19 -140 -9 -45 -7 -52 11 -68 12 -10
18 -20 14 -24 -3 -4 -13 3 -22 15 l-15 22 -30 -22 c-49 -36 -31 -67 19 -32 12
8 22 10 22 5 0 -18 29 -12 38 7 5 9 10 40 11 69 1 29 6 75 11 102 16 83 23
208 11 191 -8 -12 -12 -10 -20 10 l-10 25 -2 -30z m1 -241 c0 -8 -5 -12 -10
-9 -6 4 -8 11 -5 16 9 14 15 11 15 -7z m0 -34 c0 -5 -2 -10 -4 -10 -3 0 -8 5
-11 10 -3 6 -1 10 4 10 6 0 11 -4 11 -10z"/>
<path d="M2771 2495 c2 -11 0 -26 -4 -32 -5 -7 -4 -13 2 -13 6 0 8 -8 4 -17
-8 -23 -43 -57 -43 -43 0 6 -6 18 -14 26 -13 12 -15 11 -21 -6 -7 -23 -21 -26
-28 -7 -4 8 -6 6 -6 -4 -1 -9 -10 -24 -20 -33 -15 -14 -18 -23 -11 -44 5 -15
14 -67 20 -115 12 -86 12 -89 -9 -103 -23 -17 -29 -54 -7 -54 36 0 78 24 92
54 11 24 13 26 10 7 -9 -45 81 56 100 112 29 86 0 234 -52 278 -14 11 -15 10
-13 -6z m-61 -122 c0 -19 -3 -24 -10 -17 -6 6 -8 18 -4 27 9 24 14 21 14 -10z
m-30 -98 c0 -8 -2 -15 -4 -15 -2 0 -6 7 -10 15 -3 8 -1 15 4 15 6 0 10 -7 10
-15z m35 -37 c4 4 6 -8 3 -25 -5 -36 2 -42 22 -18 20 24 28 18 27 -18 0 -19
-6 -34 -11 -34 -6 0 -22 -3 -35 -7 -15 -5 -21 -4 -17 2 3 5 -1 32 -9 58 -18
60 -18 59 -2 45 8 -6 17 -7 22 -3z"/>
<path d="M2720 2466 c0 -9 5 -16 10 -16 6 0 10 4 10 9 0 6 -4 13 -10 16 -5 3
-10 -1 -10 -9z"/>
<path d="M2746 2427 c3 -10 9 -15 12 -12 3 3 0 11 -7 18 -10 9 -11 8 -5 -6z"/>
<path d="M3720 2370 c0 -5 5 -10 10 -10 6 0 10 5 10 10 0 6 -4 10 -10 10 -5 0
-10 -4 -10 -10z"/>
<path d="M3680 2350 c-8 -5 -10 -10 -5 -10 6 0 17 5 25 10 8 5 11 10 5 10 -5
0 -17 -5 -25 -10z"/>
<path d="M3712 2338 c-7 -7 -12 -19 -12 -27 0 -10 6 -7 17 8 16 23 17 23 25 5
8 -19 8 -19 5 0 -3 24 -19 30 -35 14z"/>
<path d="M3906 2342 c-3 -5 1 -9 9 -9 8 0 15 4 15 9 0 4 -4 8 -9 8 -6 0 -12
-4 -15 -8z"/>
<path d="M3671 2313 c-1 -6 -10 -15 -21 -18 -21 -7 -27 -30 -11 -40 11 -6 101
16 101 26 0 3 -11 4 -25 1 -19 -3 -27 1 -34 19 -5 13 -10 19 -10 12z"/>
<path d="M3030 2155 c0 -27 1 -28 24 -19 9 3 13 10 10 15 -3 5 2 9 11 9 9 0
13 5 10 10 -3 6 -17 10 -31 10 -19 0 -24 -5 -24 -25z"/>
</g>
</svg>
